<svg width="1286" height="207" viewBox="0 0 1286 207" fill="none" xmlns="http://www.w3.org/2000/svg">
<g opacity="0.4">
<path d="M105.324 206.716C130.602 206.716 152.228 198.29 164.586 188.46C169.361 184.528 170.765 181.719 171.046 175.821L173.855 125.546C160.373 148.015 137.623 165.148 107.009 165.148C68.2499 165.148 44.6573 141.275 44.6573 104.762C44.6573 68.2499 69.9351 41.287 107.571 41.287C132.287 41.287 153.071 52.5215 164.867 70.7777L162.058 24.716C161.778 18.8179 160.092 14.6049 154.756 11.5154C144.926 5.05555 127.512 0 105.043 0C45.2191 0 0 42.4104 0 105.043C0 167.395 42.9722 206.716 105.324 206.716Z" fill="#EFE1D4"/>
<path d="M289.672 206.716C349.776 206.716 393.31 165.991 393.31 103.358C393.31 40.7253 349.776 0 289.672 0C229.848 0 186.314 40.7253 186.314 103.358C186.314 165.991 229.848 206.716 289.672 206.716ZM289.672 165.148C253.159 165.148 231.814 137.904 231.814 103.358C231.814 68.8116 253.159 41.5678 289.672 41.5678C326.184 41.5678 347.529 68.8116 347.529 103.358C347.529 137.904 326.184 165.148 289.672 165.148Z" fill="#EFE1D4"/>
<path d="M459.95 201.66C458.545 169.642 457.703 140.994 457.703 115.154V78.9227C481.857 119.648 508.539 167.676 526.233 201.66H577.351C575.946 169.642 574.823 133.41 574.823 103.358C574.823 73.3055 575.946 37.074 577.351 5.05555H531.008C532.693 37.074 533.255 67.1265 533.255 91.5616V127.793C504.888 80.3271 486.07 46.6234 464.724 5.05555H413.607C415.011 37.074 416.135 73.3055 416.135 103.358C416.135 133.41 415.011 169.642 413.607 201.66H459.95Z" fill="#EFE1D4"/>
<path d="M649.006 201.66C647.602 169.642 646.759 140.994 646.759 115.154V78.9227C670.913 119.648 697.596 167.676 715.29 201.66H766.407C765.003 169.642 763.879 133.41 763.879 103.358C763.879 73.3055 765.003 37.074 766.407 5.05555H720.065C721.75 37.074 722.312 67.1265 722.312 91.5616V127.793C693.944 80.3271 675.126 46.6234 653.781 5.05555H602.664C604.068 37.074 605.191 73.3055 605.191 103.358C605.191 133.41 604.068 169.642 602.664 201.66H649.006Z" fill="#EFE1D4"/>
<path d="M934.961 201.66V161.216H837.22C836.658 149.981 836.096 138.466 836.096 123.299H922.322V83.4166H836.096C836.096 68.8116 836.658 57.2962 837.22 45.4999H930.467V5.05555H791.72C793.405 37.074 794.248 73.3055 794.248 103.358C794.248 133.41 793.405 169.642 791.72 201.66H934.961Z" fill="#EFE1D4"/>
<path d="M1051.15 206.716C1076.43 206.716 1098.06 198.29 1110.42 188.46C1115.19 184.528 1116.6 181.719 1116.88 175.821L1119.69 125.546C1106.2 148.015 1083.45 165.148 1052.84 165.148C1014.08 165.148 990.488 141.275 990.488 104.762C990.488 68.2499 1015.77 41.287 1053.4 41.287C1078.12 41.287 1098.9 52.5215 1110.7 70.7777L1107.89 24.716C1107.61 18.8179 1105.92 14.6049 1100.59 11.5154C1090.76 5.05555 1073.34 0 1050.87 0C991.05 0 945.831 42.4104 945.831 105.043C945.831 167.395 988.803 206.716 1051.15 206.716Z" fill="#EFE1D4"/>
<path d="M1232.52 201.66C1230.84 167.395 1230 135.376 1230 89.3147V46.6234H1296V5.05555H1122.15V46.6234H1188.15V89.3147C1188.15 135.376 1187.31 167.395 1185.62 201.66H1232.52Z" fill="#EFE1D4"/>
</g>
</svg>
