<svg width="1286" height="285" viewBox="0 0 1286 285" fill="none" xmlns="http://www.w3.org/2000/svg">
<g opacity="0.4">
<path d="M204.946 284.428V225.917H55.8247C54.1994 200.725 53.7931 169.844 53.7931 132.056C53.7931 79.6398 55.0121 46.3211 57.45 0H-10C-7.96837 45.9148 -6.34307 82.4841 -6.34307 142.214C-6.34307 185.691 -7.96837 238.513 -10 284.428H204.946Z" fill="#EFE1D4"/>
<path d="M437.005 284.428V225.917H295.604C294.792 209.664 293.979 193.005 293.979 171.063H418.721V113.365H293.979C293.979 92.2359 294.792 75.5765 295.604 58.5108H430.504V0H229.78C232.218 46.3211 233.436 98.7371 233.436 142.214C233.436 185.691 232.218 238.107 229.78 284.428H437.005Z" fill="#EFE1D4"/>
<path d="M769.456 284.428C716.227 164.968 690.629 97.9244 651.621 0H566.293C527.286 97.9244 501.281 164.968 448.459 284.428H523.629C529.724 264.518 536.631 244.202 543.539 224.292H674.376C681.283 244.202 688.191 264.518 694.286 284.428H769.456ZM565.074 165.781C580.108 127.586 595.142 90.2042 608.957 56.8856C622.366 89.7979 637.806 127.18 652.84 165.781H565.074Z" fill="#EFE1D4"/>
<path d="M853.372 284.428C850.934 245.421 850.527 220.228 850.121 173.095H888.315C902.131 218.603 921.228 253.141 947.639 284.428H1024.84C992.335 250.296 963.486 211.289 949.671 166.187C988.678 156.435 1014.28 129.618 1014.28 84.922C1014.28 29.6618 976.488 0 921.634 0H785.922C788.359 46.3211 789.578 98.7371 789.578 142.214C789.578 185.691 788.359 238.107 785.922 284.428H853.372ZM850.121 115.396C850.121 93.4548 850.934 74.7639 851.746 58.1045H913.508C933.824 58.1045 950.483 65.0121 950.483 86.5473C950.483 108.489 934.23 115.396 913.914 115.396H850.121Z" fill="#EFE1D4"/>
<path d="M1116.16 284.428C1114.12 238.107 1112.91 196.661 1112.91 159.28V106.864C1147.85 165.781 1186.45 235.262 1212.05 284.428H1286C1283.97 238.107 1282.34 185.691 1282.34 142.214C1282.34 98.7371 1283.97 46.3211 1286 0H1218.96C1221.39 46.3211 1222.21 89.7979 1222.21 125.148V177.564C1181.17 108.895 1153.94 60.1362 1123.06 0H1049.11C1051.14 46.3211 1052.77 98.7371 1052.77 142.214C1052.77 185.691 1051.14 238.107 1049.11 284.428H1116.16Z" fill="#EFE1D4"/>
</g>
</svg>
